#!OML:ASF E:\Style4\Style4.ASF
:FULLY-SPECIFIED
:DEGREES
2039
root 0.140403 16.4903 -0.151883 7.18176 10.1294 4.40022
lowerback 14.9811 4.17189 -0.864474
upperback 4.56906 5.34235 -0.768087
thorax -3.53051 2.65034 -1.26281
lowerneck 5.51013 -2.26253 -4.24007
upperneck -3.60367 -3.14278 4.13225
head -1.96236 -1.61696 2.1655
rclavicle -4.05521e-014 2.06736e-014
rhumerus -21.9136 30.6411 -34.1099
rradius 137.266
rwrist -76.8375
rhand 53.214 -1.06722
rfingers 7.12502
rthumb 71.8984 10.4562
lclavicle -4.05521e-014 2.06736e-014
lhumerus -5.41525 -23.5577 27.617
lradius 139.211
lwrist 78.0776
lhand 34.931 47.9795
lfingers 7.12502
lthumb 58.0771 63.6315
rfemur -33.4785 -13.2807 14.9334
rtibia 63.2889
rfoot -29.6952 -20.7898
rtoes -15.3251
lfemur -34.2008 -4.34407 -23.8047
ltibia 58.1385
lfoot -28.808 8.91783
ltoes -17.2346
2040
root 0.139482 16.4822 -0.156389 7.10229 10.1041 4.45005
lowerback 15.0568 4.17703 -0.958799
upperback 4.5143 5.33402 -0.747026
thorax -3.63938 2.64517 -1.19598
lowerneck 5.61987 -2.17832 -4.18744
upperneck -4.0842 -3.02662 4.0268
head -2.14734 -1.55663 2.13053
rclavicle 1.70955e-014 -1.11319e-014
rhumerus -20.5297 31.5905 -32.5493
rradius 137.409
rwrist -77.5809
rhand 52.4536 -2.25564
rfingers 7.12502
rthumb 71.4685 7.37284
lclavicle 1.70955e-014 -1.11319e-014
lhumerus -4.3494 -23.9004 26.4505
lradius 139.125
lwrist 78.3888
lhand 35.2536 48.3022
lfingers 7.12502
lthumb 58.3579 63.698
rfemur -33.4241 -13.2478 14.885
rtibia 63.2976
rfoot -29.8461 -20.9028
rtoes -15.4785
lfemur -34.1728 -4.37329 -23.8414
ltibia 58.2134
lfoot -28.8916 8.75387
ltoes -16.6297
2041
root 0.141368 16.478 -0.158344 6.99925 10.0737 4.46255
lowerback 15.1039 4.19058 -0.958278
upperback 4.4774 5.35161 -0.723836
thorax -3.70556 2.65317 -1.18089
lowerneck 5.67856 -2.10513 -4.20185
upperneck -4.40074 -2.92859 3.98606
head -2.26759 -1.50585 2.12473
rclavicle 4.41302e-014 -4.77083e-015
rhumerus -19.3207 32.5276 -31.1984
rradius 137.608
rwrist -78.3457
rhand 51.4944 -3.21055
rfingers 7.12502
rthumb 70.8978 4.15521
lclavicle 4.41302e-014 -4.77083e-015
lhumerus -3.38243 -24.2838 25.561
lradius 138.995
lwrist 78.486
lhand 35.7057 48.5465
lfingers 7.12502
lthumb 58.7503 63.5751
rfemur -33.3028 -13.2253 14.8812
rtibia 63.2481
rfoot -29.78 -21.2121
rtoes -15.8406
lfemur -34.1133 -4.37206 -23.8525
ltibia 58.299
lfoot -29.0091 8.49234
ltoes -15.6396
2042
root 0.143901 16.4715 -0.159572 6.88032 10.0498 4.37948
lowerback 15.1178 4.20927 -0.854019
upperback 4.45355 5.39329 -0.677595
thorax -3.7329 2.67316 -1.2003
lowerneck 5.71427 -2.0659 -4.12878
upperneck -4.57821 -2.87598 3.85053
head -2.33724 -1.47655 2.06959
rclavicle -7.91163e-014 3.57812e-014
rhumerus -18.1383 33.3331 -30.0023
rradius 137.612
rwrist -78.57
rhand 51.3373 -3.23824
rfingers 7.12502
rthumb 70.8015 3.77014
lclavicle -7.91163e-014 3.57812e-014
lhumerus -2.38971 -24.8232 24.8712
lradius 138.787
lwrist 78.6198
lhand 35.7782 48.4068
lfingers 7.12502
lthumb 58.813 63.3756
rfemur -33.1517 -13.2181 14.9835
rtibia 63.1921
rfoot -29.9202 -21.3355
rtoes -15.6441
lfemur -34.0621 -4.32089 -23.7892
ltibia 58.4161
lfoot -29.0541 8.45394
ltoes -15.4825
2043
root 0.144537 16.463 -0.161808 6.76358 10.0348 4.27631
lowerback 15.1177 4.20036 -0.800459
upperback 4.43336 5.3931 -0.596322
thorax -3.75734 2.67245 -1.14635
lowerneck 5.76026 -1.99888 -3.99161
upperneck -4.61906 -2.79021 3.60174
head -2.36623 -1.42887 1.9618
rclavicle 5.725e-014 -1.66979e-014
rhumerus -16.7926 34.0489 -28.8596
rradius 137.503
rwrist -78.5642
rhand 51.4987 -2.96929
rfingers 7.12502
rthumb 70.9004 4.40617
lclavicle 5.725e-014 -1.66979e-014
lhumerus -1.45642 -25.3192 24.3729
lradius 138.545
lwrist 78.6214
lhand 35.6423 48.2207
lfingers 7.12502
lthumb 58.6954 63.3013
rfemur -33.0473 -13.1989 15.1291
rtibia 63.1663
rfoot -30.0716 -21.5402
rtoes -15.4652
lfemur -34.0292 -4.26893 -23.709
ltibia 58.5527
lfoot -29.0595 8.73216
ltoes -16.3544
2044
root 0.144908 16.4554 -0.163352 6.65222 10.0047 4.22748
lowerback 15.1154 4.20836 -0.726117
upperback 4.42902 5.41552 -0.580145
thorax -3.7553 2.68337 -1.17474
lowerneck 5.70829 -1.96494 -3.84444
upperneck -4.4668 -2.74242 3.43963
head -2.31051 -1.40299 1.87626
rclavicle -2.78299e-014 3.97569e-015
rhumerus -15.5399 34.5195 -27.9583
rradius 137.364
rwrist -78.5425
rhand 51.5044 -2.79343
rfingers 7.12502
rthumb 70.9039 4.59505
lclavicle -2.78299e-014 3.97569e-015
lhumerus -0.406503 -25.6407 23.9525
lradius 138.329
lwrist 78.7125
lhand 35.3252 48.1164
lfingers 7.12502
lthumb 58.4201 63.4548
rfemur -32.9855 -13.1351 15.211
rtibia 63.1893
rfoot -30.1593 -21.7927
rtoes -15.374
lfemur -33.9804 -4.2053 -23.6919
ltibia 58.6973
lfoot -29.0947 9.01387
ltoes -17.3698
2045
root 0.145672 16.4452 -0.164237 6.58439 9.94434 4.33217
lowerback 15.0647 4.21907 -0.735719
upperback 4.47827 5.4275 -0.625952
thorax -3.67239 2.6904 -1.21265
lowerneck 5.39026 -1.91991 -3.87585
upperneck -4.04416 -2.68097 3.42096
head -2.11483 -1.3707 1.85878
rclavicle 1.78906e-014 5.56597e-015
rhumerus -14.2357 34.7804 -27.1641
rradius 137.193
rwrist -78.583
rhand 51.1114 -2.71891
rfingers 7.12502
rthumb 70.6616 3.78188
lclavicle 1.78906e-014 5.56597e-015
lhumerus 0.58142 -25.8083 23.775
lradius 138.113
lwrist 78.6474
lhand 35.1866 48.1308
lfingers 7.12502
lthumb 58.2996 63.5803
rfemur -32.9539 -13.0652 15.1083
rtibia 63.2935
rfoot -30.4337 -21.7805
rtoes -14.6954
lfemur -33.9624 -4.18137 -23.8085
ltibia 58.8384
lfoot -29.2179 8.7551
ltoes -16.5466
2046
root 0.146529 16.4325 -0.166128 6.51385 9.865 4.44519
lowerback 15.0041 4.20459 -0.799188
upperback 4.56682 5.40066 -0.634677
thorax -3.55182 2.67849 -1.17245
lowerneck 4.95234 -1.83161 -4.05219
upperneck -3.48171 -2.56787 3.43307
head -1.85432 -1.31108 1.8716
rclavicle -3.69739e-014 3.10104e-014
rhumerus -12.7011 34.8655 -26.3353
rradius 137.002
rwrist -78.716
rhand 50.8207 -2.8166
rfingers 7.12502
rthumb 70.4794 3.04202
lclavicle -3.69739e-014 3.10104e-014
lhumerus 1.41317 -25.8478 23.889
lradius 137.847
lwrist 78.3673
lhand 35.2419 48.0268
lfingers 7.12502
lthumb 58.3477 63.432
rfemur -32.9561 -12.9631 14.9806
rtibia 63.446
rfoot -30.6415 -21.7702
rtoes -13.9461
lfemur -33.9481 -4.1871 -23.9244
ltibia 58.9836
lfoot -29.3521 8.4759
ltoes -15.3757
2047
root 0.147626 16.4193 -0.167286 6.43529 9.79405 4.52544
lowerback 14.9582 4.21087 -0.808893
upperback 4.60575 5.4069 -0.678866
thorax -3.48268 2.68251 -1.20848
lowerneck 4.70364 -1.8026 -4.04109
upperneck -2.89183 -2.52941 3.39243
head -1.62025 -1.2915 1.84022
rclavicle -6.63941e-014 3.49861e-014
rhumerus -11.5096 34.8753 -25.9496
rradius 136.809
rwrist -78.7278
rhand 50.9618 -2.96562
rfingers 7.12502
rthumb 70.5682 3.20318
lclavicle -6.63941e-014 3.49861e-014
lhumerus 2.29209 -25.8749 24.0541
lradius 137.59
lwrist 78.054
lhand 35.3673 48.0817
lfingers 7.12502
lthumb 58.4567 63.3861
rfemur -32.9747 -12.8751 14.8751
rtibia 63.6287
rfoot -30.8001 -21.8126
rtoes -13.7722
lfemur -33.9113 -4.18204 -24.0285
ltibia 59.1197
lfoot -29.4717 8.45128
ltoes -15.1512
2048
root 0.148955 16.4097 -0.167843 6.36237 9.73917 4.63164
lowerback 14.8618 4.24699 -0.810648
upperback 4.65041 5.45363 -0.74914
thorax -3.37662 2.7071 -1.2787
lowerneck 4.52257 -1.82477 -3.91364
upperneck -2.19944 -2.55783 3.28777
head -1.36612 -1.30583 1.76942
rclavicle -4.29375e-014 7.95139e-015
rhumerus -10.7291 34.86 -25.9851
rradius 136.632
rwrist -78.4394
rhand 51.1812 -2.79732
rfingers 7.12502
rthumb 70.705 3.85938
lclavicle -4.29375e-014 7.95139e-015
lhumerus 3.12884 -25.8909 24.3882
lradius 137.404
lwrist 77.5794
lhand 35.508 48.1324
lfingers 7.12502
lthumb 58.5788 63.3229
rfemur -32.9844 -12.8071 14.7362
rtibia 63.8056
rfoot -30.8653 -21.9202
rtoes -14.2256
lfemur -33.8697 -4.1304 -24.1679
ltibia 59.2242
lfoot -29.5393 8.46285
ltoes -15.2868
2049
root 0.151257 16.4016 -0.169518 6.22248 9.68888 4.69307
lowerback 14.8468 4.2723 -0.774455
upperback 4.67431 5.49068 -0.802527
thorax -3.33422 2.72629 -1.35815
lowerneck 4.37186 -1.83055 -3.7362
upperneck -1.32313 -2.56539 3.15105
head -1.06303 -1.30978 1.67797
rclavicle -8.34896e-014 1.66979e-014
rhumerus -10.0673 34.8436 -26.2546
rradius 136.498
rwrist -78.108
rhand 51.0123 -2.65355
rfingers 7.12502
rthumb 70.5998 3.62693
lclavicle -8.34896e-014 1.66979e-014
lhumerus 3.72005 -25.9917 24.9781
lradius 137.294
lwrist 77.1298
lhand 35.3994 48.0055
lfingers 7.12502
lthumb 58.4846 63.284
rfemur -32.9105 -12.7252 14.6279
rtibia 63.9607
rfoot -30.8714 -21.9764
rtoes -14.2057
lfemur -33.7446 -4.04731 -24.2641
ltibia 59.301
lfoot -29.5523 8.55673
ltoes -15.662
2050
root 0.154119 16.3947 -0.169809 6.0385 9.65378 4.67132
lowerback 14.8717 4.28762 -0.687969
upperback 4.67216 5.52258 -0.813971
thorax -3.34013 2.74226 -1.42553
lowerneck 4.21354 -1.83774 -3.65126
upperneck -0.247051 -2.57942 3.11339
head -0.697357 -1.31754 1.63384
rclavicle -3.57812e-014 3.57812e-014
rhumerus -9.45317 34.7676 -26.7548
rradius 136.335
rwrist -77.7192
rhand 50.9029 -2.62229
rfingers 7.12502
rthumb 70.5312 3.41663
lclavicle -3.57812e-014 3.57812e-014
lhumerus 4.12427 -26.1913 25.7939
lradius 137.195
lwrist 76.7742
lhand 35.2046 47.8681
lfingers 7.12502
lthumb 58.3152 63.3032
rfemur -32.7673 -12.639 14.5949
rtibia 64.0793
rfoot -30.7863 -22.1243
rtoes -14.479
lfemur -33.5694 -3.95927 -24.2688
ltibia 59.3554
lfoot -29.5176 8.5194
ltoes -15.4781
2051
root 0.155602 16.3888 -0.168523 5.89508 9.61824 4.64993
lowerback 14.8577 4.30637 -0.624923
upperback 4.69074 5.55754 -0.800055
thorax -3.30804 2.75998 -1.44982
lowerneck 3.96808 -1.86743 -3.60771
upperneck 0.885078 -2.62358 3.00845
head -0.302425 -1.33845 1.57623
rclavicle 1.33583e-013 -3.89618e-014
rhumerus -8.92173 34.5536 -27.3793
rradius 136.191
rwrist -77.2871
rhand 50.9398 -2.47908
rfingers 7.12502
rthumb 70.5544 3.64114
lclavicle 1.33583e-013 -3.89618e-014
lhumerus 4.42187 -26.3777 26.8561
lradius 137.057
lwrist 76.3675
lhand 35.1081 47.7049
lfingers 7.12502
lthumb 58.2313 63.217
rfemur -32.6808 -12.5428 14.57
rtibia 64.1799
rfoot -30.633 -22.4412
rtoes -15.3491
lfemur -33.4387 -3.84361 -24.266
ltibia 59.4075
lfoot -29.4957 8.41609
ltoes -15.2026
2052
root 0.156091 16.3812 -0.16809 5.79701 9.57684 4.68819
lowerback 14.8511 4.30573 -0.650576
upperback 4.69645 5.55354 -0.793108
thorax -3.30168 2.75804 -1.42689
lowerneck 3.5924 -1.85634 -3.54986
upperneck 2.27372 -2.60935 2.82259
head 0.187285 -1.32935 1.48946
rclavicle -7.87187e-014 -7.95139e-016
rhumerus -8.44996 34.3488 -28.1742
rradius 136.102
rwrist -76.8173
rhand 50.6046 -2.24265
rfingers 7.12502
rthumb 70.3423 3.14652
lclavicle -7.87187e-014 -7.95139e-016
lhumerus 4.45583 -26.5498 28.1451
lradius 136.965
lwrist 75.8622
lhand 35.201 47.5085
lfingers 7.12502
lthumb 58.3121 62.9465
rfemur -32.6477 -12.4745 14.4968
rtibia 64.2753
rfoot -30.5729 -22.6264
rtoes -15.8345
lfemur -33.348 -3.72158 -24.3236
ltibia 59.4642
lfoot -29.5944 8.41876
ltoes -15.578
2053
root 0.157838 16.3748 -0.167448 5.69296 9.54385 4.72399
lowerback 14.8618 4.26488 -0.684696
upperback 4.70088 5.49455 -0.801465
thorax -3.30601 2.72888 -1.40718
lowerneck 3.0521 -1.81502 -3.46032
upperneck 3.92445 -2.5475 2.63012
head 0.783128 -1.29625 1.39875
rclavicle 5.42682e-014 -3.18055e-015
rhumerus -8.06433 34.1575 -29.2729
rradius 136.044
rwrist -76.2074
rhand 50.3574 -1.9108
rfingers 7.12502
rthumb 70.1838 2.94977
lclavicle 5.42682e-014 -3.18055e-015
lhumerus 4.25134 -26.6204 29.5409
lradius 137.013
lwrist 75.5545
lhand 35.0449 47.4588
lfingers 7.12502
lthumb 58.1763 63.0209
rfemur -32.5784 -12.4432 14.4218
rtibia 64.3609
rfoot -30.7126 -22.4772
rtoes -15.4878
lfemur -33.2513 -3.647 -24.3828
ltibia 59.5259
lfoot -29.6887 8.46039
ltoes -15.9159
